<svg viewBox="0 0 182 115" fill="none" xmlns="http://www.w3.org/2000/svg">
                        <path d="M93.3999 0V35.6996H181.6V0H93.3999ZM113.2 32.1996L107.2 12.2998H107.1L103.1 32.1996H95.8999L102 3.39996H111.6L117.5 23.2997H117.6L121.6 3.39996H128.8L122.7 32.0996H113.2V32.1996ZM142.5 32.1996L145.1 19.8998H136L133.5 32.1996H125.8L131.8 3.49996H139.5L137.2 14.4998H146.3L148.6 3.49996H156.3L150.3 32.1996H142.5ZM176.4 9.99988C174.9 9.29989 172.9 8.69989 170.1 8.69989C167.1 8.69989 164.6 9.19989 164.6 11.4999C164.6 15.5998 175.8 14.0998 175.8 22.7997C175.8 30.7996 168.4 32.7996 161.8 32.7996C158.8 32.7996 155.4 32.0996 152.9 31.2996L154.7 25.4997C156.2 26.4997 159.3 27.0997 161.8 27.0997C164.2 27.0997 167.9 26.5997 167.9 23.6997C167.9 19.0998 156.7 20.7997 156.7 12.6998C156.7 5.29993 163.2 3.09996 169.5 3.09996C173 3.09996 176.4 3.49996 178.3 4.39995L176.4 9.99988Z" fill="white"/>
                        <path d="M13.2 45.4011C11.9 44.8011 10.6 44.6011 9.30003 44.6011C3.90001 44.6011 0 48.201 0 53.601C0 59.2009 3.70001 62.8008 9.30003 62.8008C10.3 62.8008 12 62.7008 13.3 62.2008L13.1 59.8009C12.2 60.3009 10.5 60.7009 9.30003 60.7009C5.60002 60.7009 2.70001 58.0009 2.70001 53.801C2.70001 49.901 5.40002 46.901 9.40003 46.901C10.7 46.901 11.9 47.201 13 47.901L13.2 45.4011Z" fill="white"/>
                        <path fill-rule="evenodd" clip-rule="evenodd" d="M15.1 55.9995C15.1 59.6995 17.8 62.6994 21.6 62.6994C25.5 62.6994 28.1 59.6995 28.1 55.9995C28.1 52.0995 25.5 49.2996 21.6 49.2996C17.7 49.2996 15.1 52.0995 15.1 55.9995ZM17.6 55.9995C17.6 53.5995 19.1 51.1995 21.6 51.1995C24.1 51.1995 25.6 53.5995 25.6 55.9995C25.6 58.2995 24.4 60.7994 21.6 60.7994C18.9 60.8994 17.6 58.2995 17.6 55.9995Z" fill="white"/>
                        <path d="M42.6 49.5994H40.2V55.4993C40.2 58.5993 39 60.7992 36.3 60.7992C34.2 60.6992 33.6 59.1993 33.6 56.1993V49.5994H31.2V57.1993C31.2 60.5992 32.7 62.6992 36 62.6992C37.8 62.6992 39.5 61.7992 40.2 60.3992H40.3V62.3992H42.6V49.5994Z" fill="white"/>
                        <path d="M46.6001 62.4993H49.0001V56.5993C49.0001 53.4994 50.2001 51.2994 52.9001 51.2994C55.0001 51.3994 55.6001 52.8994 55.6001 55.8993V62.4993H58.0001V54.8993C58.0001 51.4994 56.5001 49.3994 53.2001 49.3994C51.4001 49.3994 49.7001 50.2994 49.0001 51.6994V49.6994H46.7001V62.4993H46.6001Z" fill="white"/>
                        <path d="M68.7001 49.6003H65.3001V45.9004L63.0001 46.7004V49.7003H60.1001V51.6003H63.0001V59.0002C63.0001 61.6002 64.5001 62.7002 67.0001 62.7002C67.8001 62.7002 68.5001 62.5002 69.0001 62.3002V60.3002C68.6001 60.5002 68.1001 60.8002 67.4001 60.8002C66.3001 60.8002 65.4001 60.0002 65.4001 58.5002V51.5003H68.8001V49.6003H68.7001Z" fill="white"/>
                        <path d="M70.5 67.8992C70.9 67.9992 71.4 68.0992 72.1 68.0992C75.2 68.0992 76.1 65.2993 77 62.7993L81.7 49.6995H79.3L75.8 60.2993L72.3 49.6995H69.7L74.1 61.6993C74.3 62.0993 74.6 62.7993 74.6 63.0993C74.6 63.3993 73.9 66.2993 71.8 66.2993C71.4 66.2993 71 66.1993 70.7 66.0993L70.5 67.8992Z" fill="white"/>
                        <path fill-rule="evenodd" clip-rule="evenodd" d="M91.2 62.4998H96.4C102.2 62.4998 105.8 59.4998 105.8 53.5999C105.8 48.2 101.6 45 96.4 45H91.2V62.4998ZM93.7 47.1H96.6C100.2 47.1 103 49.4999 103 53.5999C103 58.0998 100.6 60.1998 96.3 60.1998H93.7V47.1Z" fill="white"/>
                        <path d="M120.5 49.5994H118.1V55.4993C118.1 58.5993 116.9 60.7992 114.2 60.7992C112.1 60.6992 111.5 59.1993 111.5 56.1993V49.5994H109.1V57.1993C109.1 60.5992 110.6 62.6992 113.9 62.6992C115.7 62.6992 117.4 61.7992 118.1 60.3992H118.2V62.3992H120.5V49.5994Z" fill="white"/>
                        <path d="M124.5 62.4993H126.9V56.6993C126.9 53.4994 128.3 51.4994 130.4 51.4994C130.8 51.4994 131.3 51.4994 131.7 51.6994V49.5994C131.2 49.4994 130.8 49.3994 130.1 49.3994C128.7 49.3994 127.4 50.3994 126.7 51.6994V49.6994H124.5V62.4993Z" fill="white"/>
                        <path d="M134.2 62.4994H136.6V56.5994C136.6 53.4995 137.8 51.2995 140.5 51.2995C142.6 51.3995 143.2 52.8995 143.2 55.8995V62.4994H145.6V54.8995C145.6 51.4995 144.1 49.3995 140.8 49.3995C139 49.3995 137.5 50.1995 136.7 51.4995V43.5996H134.3V62.4994H134.2Z" fill="white"/>
                        <path fill-rule="evenodd" clip-rule="evenodd" d="M150.3 52.4994C151.3 51.6994 152.7 51.1994 154 51.1994C156.4 51.1994 157.2 52.2994 157.2 54.4994C156.3 54.3994 155.6 54.3994 154.7 54.3994C152.3 54.3994 148.7 55.3994 148.7 58.5993C148.7 61.3993 150.6 62.5993 153.4 62.5993C155.6 62.5993 156.8 61.3993 157.4 60.5993H157.5V62.2993H159.7C159.6 61.8993 159.6 61.1993 159.6 59.7993V54.4994C159.6 50.9994 158.1 49.1995 154.4 49.1995C152.8 49.1995 151.4 49.6995 150.2 50.3994L150.3 52.4994ZM157.2 57.4993C157.2 59.3993 156 60.8993 153.6 60.8993C152.5 60.8993 151.2 60.1993 151.2 58.7993C151.2 56.4994 154.4 56.2994 155.7 56.2994C156.2 56.2994 156.7 56.3994 157.2 56.3994V57.4993Z" fill="white"/>
                        <path d="M163.4 62.4994H165.8V55.9995C165.8 53.5995 166.8 51.1995 169.2 51.1995C171.1 51.1995 171.5 53.1995 171.5 54.7995V62.3994H173.9V55.9995C173.9 53.5995 174.9 51.1995 177.3 51.1995C179.2 51.1995 179.6 53.1995 179.6 54.7995V62.3994H182V54.1995C182 51.3995 180.8 49.2996 177.5 49.2996C176.3 49.2996 174.4 49.9996 173.5 51.7995C172.8 50.0996 171.3 49.2996 169.9 49.2996C168 49.2996 166.7 49.9996 165.8 51.4995V49.5996H163.6V62.4994H163.4Z" fill="white"/>
                        <path fill-rule="evenodd" clip-rule="evenodd" d="M8.50003 80.799C9.50003 79.999 10.9 79.499 12.2 79.499C14.6 79.499 15.4 80.599 15.4 82.799C14.5 82.699 13.8 82.699 12.9 82.699C10.5 82.699 6.90002 83.6989 6.90002 86.8989C6.90002 89.6989 8.80003 90.8988 11.6 90.8988C13.8 90.8988 15 89.6989 15.6 88.8989V90.5988H17.8C17.8 90.1989 17.7001 89.4989 17.7001 88.0989V82.799C17.7001 79.299 16.2 77.499 12.5 77.499C10.9 77.499 9.50003 77.999 8.30003 78.699L8.50003 80.799ZM15.4 85.6989C15.4 87.5989 14.2 89.0989 11.8 89.0989C10.7 89.0989 9.40003 88.3989 9.40003 86.9989C9.40003 84.6989 12.6 84.4989 13.9 84.4989C14.4 84.4989 14.9 84.4989 15.4 84.4989V85.6989Z" fill="white"/>
                        <path d="M21.7001 90.699H24.0001V84.799C24.0001 81.6991 25.2 79.4991 27.9 79.4991C30 79.5991 30.6 81.0991 30.6 84.0991V90.699H33V83.0991C33 79.6991 31.5 77.5991 28.2 77.5991C26.4 77.5991 24.7001 78.4991 24.0001 79.8991V77.8991H21.7001V90.699Z" fill="white"/>
                        <path fill-rule="evenodd" clip-rule="evenodd" d="M46.1 90.6991H48.4V71.7993H46V79.5992C45.3 78.3992 44 77.4992 41.7001 77.4992C38.0001 77.4992 36.2001 80.4992 36.2001 83.9992C36.2001 87.4991 37.8001 90.8991 41.7001 90.8991C44 90.8991 45.4 89.6991 46.1 88.7991H46.2V90.6991H46.1ZM38.7001 84.2992C38.6001 81.9992 39.7001 79.4992 42.2 79.4992C44.8 79.4992 46 81.8992 46 84.2992C46 86.3991 44.9 89.0991 42.2 89.0991C39.7001 89.0991 38.6001 86.2991 38.7001 84.2992Z" fill="white"/>
                        <path fill-rule="evenodd" clip-rule="evenodd" d="M59.3 90.6995H64.5C70.3 90.6995 73.9 87.6995 73.9 81.7996C73.9 76.3997 69.7 73.1997 64.5 73.1997H59.3V90.6995ZM61.8 75.3997H64.7C68.3 75.3997 71.1 77.7997 71.1 81.8996C71.1 86.3996 68.7 88.4995 64.4 88.4995H61.8V75.3997Z" fill="white"/>
                        <path fill-rule="evenodd" clip-rule="evenodd" d="M78.1 80.799C79.1 79.999 80.5 79.499 81.8 79.499C84.2 79.499 85 80.599 85 82.799C84.1 82.699 83.4 82.699 82.5 82.699C80.1 82.699 76.5 83.6989 76.5 86.8989C76.5 89.6989 78.4 90.8988 81.2 90.8988C83.4 90.8988 84.6 89.6989 85.2 88.8989V90.5988H87.4C87.3 90.1989 87.3 89.4989 87.3 88.0989V82.799C87.3 79.299 85.8 77.499 82.1 77.499C80.5 77.499 79.1 77.999 77.9 78.699L78.1 80.799ZM85 85.6989C85 87.5989 83.8 89.0989 81.4 89.0989C80.3 89.0989 79 88.3989 79 86.9989C79 84.6989 82.2 84.4989 83.5 84.4989C84 84.4989 84.5 84.4989 85 84.4989V85.6989Z" fill="white"/>
                        <path d="M91.3 90.699H93.7V84.899C93.7 81.6991 95.1 79.6991 97.2 79.6991C97.6 79.6991 98.1 79.6991 98.5 79.8991V77.7991C98 77.6991 97.6 77.5991 96.9 77.5991C95.5 77.5991 94.2 78.5991 93.6 79.8991H93.5V77.8991H91.3V90.699Z" fill="white"/>
                        <path d="M101.3 90.6991H103.6V71.7993H101.3V90.6991Z" fill="white"/>
                        <path fill-rule="evenodd" clip-rule="evenodd" d="M108.2 90.7001H110.6V77.9002H108.2V90.7001ZM110.7 72.3003H108V75.0003H110.7V72.3003Z" fill="white"/>
                        <path d="M114.8 90.699H117.2V84.799C117.2 81.6991 118.4 79.4991 121.1 79.4991C123.2 79.5991 123.8 81.0991 123.8 84.0991V90.699H126.2V83.0991C126.2 79.6991 124.7 77.5991 121.4 77.5991C119.6 77.5991 117.9 78.4991 117.2 79.8991H117.1V77.8991H114.8V90.699Z" fill="white"/>
                        <path fill-rule="evenodd" clip-rule="evenodd" d="M141.5 77.8991H139.3V79.7991C138.6 78.3991 137.3 77.5991 135.1 77.5991C131.2 77.5991 129.4 81.0991 129.4 84.399C129.4 87.699 131.2 90.699 134.9 90.699C136.5 90.699 138.2 89.999 139.2 88.699H139.3V89.999C139.3 92.6989 137.8 94.3989 135.3 94.3989C133.6 94.3989 132.5 94.0989 130.7 93.1989L130.4 95.3989C132.5 96.0989 133.6 96.2989 135 96.2989C139.6 96.2989 141.6 94.0989 141.6 90.199V77.8991H141.5ZM135.4 88.799C133.2 88.799 131.8 86.699 131.8 84.299C131.8 82.0991 133 79.4991 135.4 79.4991C137.9 79.4991 139.1 81.7991 139.1 84.499C139.1 86.799 137.6 88.799 135.4 88.799Z" fill="white"/>
                        <path d="M152.3 77.9002H148.9V74.2002L146.5 75.0002V78.0002H143.6V79.9001H146.5V87.4C146.5 90 148 91.1 150.5 91.1C151.2 91.1 152 90.9 152.5 90.8V88.8C152.1 89 151.6 89.3 150.9 89.3C149.8 89.3 148.9 88.5 148.9 87V80.0001H152.3V77.9002Z" fill="white"/>
                        <path fill-rule="evenodd" clip-rule="evenodd" d="M154.3 84.299C154.3 87.999 157 90.9989 160.8 90.9989C164.7 90.9989 167.3 87.999 167.3 84.299C167.3 80.3991 164.7 77.5991 160.8 77.5991C156.9 77.5991 154.3 80.3991 154.3 84.299ZM156.8 84.299C156.8 81.8991 158.3 79.4991 160.8 79.4991C163.3 79.4991 164.8 81.8991 164.8 84.299C164.8 86.599 163.6 89.099 160.8 89.099C158.1 89.099 156.8 86.599 156.8 84.299Z" fill="white"/>
                        <path d="M170.5 90.699H172.9V84.799C172.9 81.6991 174.1 79.4991 176.8 79.4991C178.9 79.5991 179.5 81.0991 179.5 84.0991V90.699H181.9V83.0991C181.9 79.6991 180.4 77.5991 177.1 77.5991C175.3 77.5991 173.6 78.4991 172.9 79.8991V77.8991H170.6V90.699H170.5Z" fill="white"/>
                        <path d="M13.3 114.1H15V104.4L20.3 114.1H22.5V102.3H20.8V111.8L15.6 102.3H13.3V114.1Z" fill="white"/>
                        <path d="M25.5 114.1H27.1V108.7H32.8V114.1H34.5V102.3H32.8V107.2H27.1V102.3H25.5V114.1Z" fill="white"/>
                        <path d="M43.1001 102.5C42.3001 102.2 41.4001 102.1 40.6001 102.1C38.5001 102.1 36.8 103.2 36.8 105.3C36.8 109 41.9001 108.2 41.9001 110.9C41.9001 112.3 40.5001 112.8 39.6001 112.8C38.7001 112.8 37.7001 112.5 37.1001 112.2L36.9001 113.8C37.7001 114 38.5001 114.3 39.3001 114.3C41.7001 114.3 43.6001 113.3 43.6001 110.8C43.6001 106.9 38.5001 107.4 38.5001 105.2C38.5001 104 39.6001 103.6 40.6001 103.6C41.5001 103.6 42.0001 103.8 42.8001 104.1L43.1001 102.5Z" fill="white"/>
                        <path d="M50.3 114.1H52.0001V108.7H56.4001V107.2H52.0001V103.8H56.6001V102.3H50.3V114.1Z" fill="white"/>
                        <path fill-rule="evenodd" clip-rule="evenodd" d="M58 109.799C58 112.298 59.8 114.298 62.4 114.298C65 114.298 66.8 112.298 66.8 109.799C66.8 107.199 65 105.299 62.4 105.299C59.8 105.299 58 107.199 58 109.799ZM59.7 109.799C59.7 108.199 60.7 106.599 62.4 106.599C64.1 106.599 65.1 108.199 65.1 109.799C65.1 111.299 64.3 112.998 62.4 112.998C60.5 112.998 59.7 111.299 59.7 109.799Z" fill="white"/>
                        <path d="M76.4 105.499H74.8V109.498C74.8 111.598 74 113.098 72.2 113.098C70.8 112.998 70.4 111.998 70.4 109.998V105.499H68.8V110.598C68.8 112.898 69.8 114.298 72 114.298C73.2 114.298 74.4 113.698 74.8 112.698V114.098H76.3V105.499H76.4Z" fill="white"/>
                        <path d="M79 114.098H80.6V110.099C80.6 107.999 81.4 106.499 83.2001 106.499C84.6001 106.599 85.0001 107.599 85.0001 109.599V114.098H86.6001V108.999C86.6001 106.699 85.6001 105.299 83.4001 105.299C82.2 105.299 81 105.899 80.6 106.899V105.499H79V114.098Z" fill="white"/>
                        <path fill-rule="evenodd" clip-rule="evenodd" d="M95.3001 114.099H96.8V101.399H95.2001V106.599C94.7001 105.799 93.8001 105.199 92.3001 105.199C89.8001 105.199 88.6001 107.199 88.6001 109.599C88.6001 111.999 89.7001 114.299 92.3001 114.299C93.8001 114.299 94.8001 113.499 95.2001 112.899V114.099H95.3001ZM90.4001 109.699C90.4001 108.099 91.0001 106.499 92.8001 106.499C94.5001 106.499 95.4001 108.099 95.4001 109.699C95.4001 111.099 94.7001 112.899 92.9001 112.899C91.0001 112.999 90.3001 111.099 90.4001 109.699Z" fill="white"/>
                        <path fill-rule="evenodd" clip-rule="evenodd" d="M99.9001 107.399C100.5 106.899 101.5 106.499 102.4 106.499C104 106.499 104.5 107.299 104.5 108.799C103.9 108.799 103.4 108.799 102.8 108.799C101.2 108.799 98.8 109.499 98.8 111.599C98.8 113.499 100.1 114.299 102 114.299C103.5 114.299 104.3 113.499 104.7 112.999V114.099H106.2C106.2 113.799 106.1 113.399 106.1 112.399V108.799C106.1 106.399 105.1 105.199 102.6 105.199C101.5 105.199 100.6 105.499 99.8001 105.999L99.9001 107.399ZM104.6 110.699C104.6 111.999 103.8 112.999 102.2 112.999C101.5 112.999 100.6 112.499 100.6 111.599C100.6 110.099 102.7 109.899 103.6 109.899C103.9 109.899 104.3 109.899 104.6 109.899V110.699Z" fill="white"/>
                        <path d="M113.3 105.499H111V102.999L109.4 103.499V105.499H107.5V106.799H109.4V111.799C109.4 113.499 110.4 114.299 112.1 114.299C112.6 114.299 113.1 114.199 113.5 114.099V112.699C113.3 112.799 112.9 112.999 112.4 112.999C111.7 112.999 111.1 112.499 111.1 111.499V106.799H113.4V105.499H113.3Z" fill="white"/>
                        <path fill-rule="evenodd" clip-rule="evenodd" d="M115.4 114.099H117V105.499H115.4V114.099ZM117.1 101.699H115.3V103.499H117.1V101.699Z" fill="white"/>
                        <path fill-rule="evenodd" clip-rule="evenodd" d="M119.2 109.799C119.2 112.298 121 114.298 123.6 114.298C126.2 114.298 128 112.298 128 109.799C128 107.199 126.2 105.299 123.6 105.299C121 105.299 119.2 107.199 119.2 109.799ZM120.9 109.799C120.9 108.199 121.9 106.599 123.6 106.599C125.3 106.599 126.3 108.199 126.3 109.799C126.3 111.299 125.5 112.998 123.6 112.998C121.7 112.998 120.9 111.299 120.9 109.799Z" fill="white"/>
                        <path d="M130 114.098H131.6V110.099C131.6 107.999 132.4 106.499 134.2 106.499C135.6 106.599 136 107.599 136 109.599V114.098H137.6V108.999C137.6 106.699 136.6 105.299 134.4 105.299C133.2 105.299 132 105.899 131.6 106.899V105.499H130V114.098Z" fill="white"/>
                        <path d="M147.3 114.1H149V103.8H152.7V102.3H143.6V103.8H147.3V114.1Z" fill="white"/>
                        <path d="M154.1 114.099H155.7V110.199C155.7 107.999 156.6 106.699 158 106.699C158.3 106.699 158.6 106.699 158.9 106.899V105.499C158.6 105.399 158.3 105.399 157.9 105.399C157 105.399 156.1 105.999 155.6 106.899V105.599H154.1V114.099Z" fill="white"/>
                        <path d="M168.2 105.499H166.6V109.498C166.6 111.598 165.8 113.098 164 113.098C162.6 112.998 162.2 111.998 162.2 109.998V105.499H160.6V110.598C160.6 112.898 161.6 114.298 163.8 114.298C165 114.298 166.1 113.698 166.6 112.698V114.098H168.1V105.499H168.2Z" fill="white"/>
                        <path d="M170 113.798C170.7 114.198 171.6 114.298 172.4 114.298C173.9 114.298 175.4 113.498 175.4 111.598C175.4 108.799 171.7 109.299 171.7 107.599C171.7 106.899 172.4 106.599 173.2 106.599C173.6 106.599 174.5 106.799 174.9 106.999L175 105.599C174.4 105.399 173.8 105.299 173 105.299C171.3 105.299 169.9 106.199 169.9 107.999C169.9 110.399 173.6 110.299 173.6 111.898C173.6 112.798 172.7 113.098 172 113.098C171.5 113.098 170.6 112.898 170 112.498V113.798Z" fill="white"/>
                        <path d="M181.8 105.499H179.5V102.999L177.9 103.499V105.499H176V106.799H177.9V111.799C177.9 113.499 178.9 114.299 180.6 114.299C181.1 114.299 181.6 114.199 182 114.099V112.699C181.8 112.799 181.4 112.999 180.9 112.999C180.2 112.999 179.6 112.499 179.6 111.499V106.799H181.9V105.499H181.8Z" fill="white"/>
                    </svg>